<svg width="24" height="25" viewBox="0 0 24 25" fill="none" xmlns="http://www.w3.org/2000/svg">
<g clip-path="url(#clip0_2618_28494)">
<path d="M22.4852 11.4745L12.0002 17.7665L1.51524 11.4745C1.28782 11.3381 1.01551 11.2976 0.758206 11.3619C0.500906 11.4262 0.279698 11.5901 0.143244 11.8175C0.0067898 12.045 -0.0337318 12.3173 0.0305932 12.5746C0.0949182 12.8319 0.258821 13.0531 0.486244 13.1895L11.4862 19.7895C11.6418 19.883 11.8198 19.9324 12.0012 19.9324C12.1827 19.9324 12.3607 19.883 12.5162 19.7895L23.5162 13.1895C23.7437 13.0531 23.9076 12.8319 23.9719 12.5746C24.0362 12.3173 23.9957 12.045 23.8592 11.8175C23.7228 11.5901 23.5016 11.4262 23.2443 11.3619C22.987 11.2976 22.7147 11.3381 22.4872 11.4745H22.4852Z" fill="white"/>
<path d="M22.4852 16.0409L12.0002 22.332L1.51524 16.0409C1.40263 15.9734 1.27782 15.9287 1.14793 15.9093C1.01803 15.89 0.885605 15.8964 0.758203 15.9283C0.630801 15.9601 0.51092 16.0168 0.405405 16.095C0.299889 16.1731 0.210806 16.2713 0.143241 16.384C0.0756756 16.4966 0.030952 16.6214 0.0116234 16.7513C-0.00770524 16.8812 -0.0012603 17.0136 0.0305902 17.141C0.0949152 17.3983 0.258818 17.6195 0.486241 17.756L11.4862 24.356C11.6418 24.4494 11.8198 24.4988 12.0012 24.4988C12.1827 24.4988 12.3607 24.4494 12.5162 24.356L23.5162 17.756C23.7437 17.6195 23.9076 17.3983 23.9719 17.141C24.0362 16.8837 23.9957 16.6114 23.8592 16.384C23.7228 16.1565 23.5016 15.9926 23.2443 15.9283C22.987 15.864 22.7147 15.9045 22.4872 16.0409H22.4852Z" fill="white"/>
<path d="M0.484928 8.85608L10.4689 14.8471C10.9312 15.1252 11.4605 15.2721 11.9999 15.2721C12.5394 15.2721 13.0687 15.1252 13.5309 14.8471L23.5149 8.85608C23.6628 8.76718 23.7851 8.64153 23.87 8.49136C23.955 8.34119 23.9996 8.1716 23.9996 7.99908C23.9996 7.82656 23.955 7.65697 23.87 7.5068C23.7851 7.35663 23.6628 7.23098 23.5149 7.14208L13.5309 1.15108C13.0686 0.873308 12.5393 0.726562 11.9999 0.726562C11.4605 0.726563 10.9313 0.873308 10.4689 1.15108L0.484928 7.14208C0.337075 7.23098 0.214739 7.35663 0.129809 7.5068C0.0448784 7.65697 0.000244141 7.82656 0.000244141 7.99908C0.000244141 8.1716 0.0448784 8.34119 0.129809 8.49136C0.214739 8.64153 0.337075 8.76718 0.484928 8.85608Z" fill="white"/>
</g>
<defs>
<clipPath id="clip0_2618_28494">
<rect width="24" height="24" fill="white" transform="translate(0 0.5)"/>
</clipPath>
</defs>
</svg>
